<?xml version="1.0" encoding="utf-8" standalone="no"?>
<!DOCTYPE svg PUBLIC "-//W3C//DTD SVG 1.1//EN"
  "http://www.w3.org/Graphics/SVG/1.1/DTD/svg11.dtd">
<svg xmlns:xlink="http://www.w3.org/1999/xlink" width="460.8pt" height="345.6pt" viewBox="0 0 460.8 345.6" xmlns="http://www.w3.org/2000/svg" version="1.1">
 <metadata>
  <rdf:RDF xmlns:dc="http://purl.org/dc/elements/1.1/" xmlns:cc="http://creativecommons.org/ns#" xmlns:rdf="http://www.w3.org/1999/02/22-rdf-syntax-ns#">
   <cc:Work>
    <dc:type rdf:resource="http://purl.org/dc/dcmitype/StillImage"/>
    <dc:date>2023-12-06T23:17:15.770843</dc:date>
    <dc:format>image/svg+xml</dc:format>
    <dc:creator>
     <cc:Agent>
      <dc:title>Matplotlib v3.8.2, https://matplotlib.org/</dc:title>
     </cc:Agent>
    </dc:creator>
   </cc:Work>
  </rdf:RDF>
 </metadata>
 <defs>
  <style type="text/css">*{stroke-linejoin: round; stroke-linecap: butt}</style>
 </defs>
 <g id="figure_1">
  <g id="patch_1">
   <path d="M 0 345.6 
L 460.8 345.6 
L 460.8 0 
L 0 0 
z
" style="fill: #ffffff"/>
  </g>
  <g id="axes_1">
   <g id="patch_2">
    <path d="M 57.6 307.584 
L 414.72 307.584 
L 414.72 41.472 
L 57.6 41.472 
z
" style="fill: #ffffff"/>
   </g>
   <g id="matplotlib.axis_1">
    <g id="xtick_1">
     <g id="line2d_1">
      <path d="M 70.553388 307.584 
L 70.553388 41.472 
" clip-path="url(#pfbc83014ca)" style="fill: none; stroke: #b0b0b0; stroke-width: 0.8; stroke-linecap: square"/>
     </g>
     <g id="line2d_2">
      <defs>
       <path id="m54ce7447ef" d="M 0 0 
L 0 3.5 
" style="stroke: #000000; stroke-width: 0.8"/>
      </defs>
      <g>
       <use xlink:href="#m54ce7447ef" x="70.553388" y="307.584" style="stroke: #000000; stroke-width: 0.8"/>
      </g>
     </g>
     <g id="text_1">
      <!-- 0 -->
      <g transform="translate(67.372138 322.182437) scale(0.1 -0.1)">
       <defs>
        <path id="DejaVuSans-30" d="M 2034 4250 
Q 1547 4250 1301 3770 
Q 1056 3291 1056 2328 
Q 1056 1369 1301 889 
Q 1547 409 2034 409 
Q 2525 409 2770 889 
Q 3016 1369 3016 2328 
Q 3016 3291 2770 3770 
Q 2525 4250 2034 4250 
z
M 2034 4750 
Q 2819 4750 3233 4129 
Q 3647 3509 3647 2328 
Q 3647 1150 3233 529 
Q 2819 -91 2034 -91 
Q 1250 -91 836 529 
Q 422 1150 422 2328 
Q 422 3509 836 4129 
Q 1250 4750 2034 4750 
z
" transform="scale(0.015625)"/>
       </defs>
       <use xlink:href="#DejaVuSans-30"/>
      </g>
     </g>
    </g>
    <g id="xtick_2">
     <g id="line2d_3">
      <path d="M 136.140165 307.584 
L 136.140165 41.472 
" clip-path="url(#pfbc83014ca)" style="fill: none; stroke: #b0b0b0; stroke-width: 0.8; stroke-linecap: square"/>
     </g>
     <g id="line2d_4">
      <g>
       <use xlink:href="#m54ce7447ef" x="136.140165" y="307.584" style="stroke: #000000; stroke-width: 0.8"/>
      </g>
     </g>
     <g id="text_2">
      <!-- 20 -->
      <g transform="translate(129.777665 322.182437) scale(0.1 -0.1)">
       <defs>
        <path id="DejaVuSans-32" d="M 1228 531 
L 3431 531 
L 3431 0 
L 469 0 
L 469 531 
Q 828 903 1448 1529 
Q 2069 2156 2228 2338 
Q 2531 2678 2651 2914 
Q 2772 3150 2772 3378 
Q 2772 3750 2511 3984 
Q 2250 4219 1831 4219 
Q 1534 4219 1204 4116 
Q 875 4013 500 3803 
L 500 4441 
Q 881 4594 1212 4672 
Q 1544 4750 1819 4750 
Q 2544 4750 2975 4387 
Q 3406 4025 3406 3419 
Q 3406 3131 3298 2873 
Q 3191 2616 2906 2266 
Q 2828 2175 2409 1742 
Q 1991 1309 1228 531 
z
" transform="scale(0.015625)"/>
       </defs>
       <use xlink:href="#DejaVuSans-32"/>
       <use xlink:href="#DejaVuSans-30" x="63.623047"/>
      </g>
     </g>
    </g>
    <g id="xtick_3">
     <g id="line2d_5">
      <path d="M 201.726942 307.584 
L 201.726942 41.472 
" clip-path="url(#pfbc83014ca)" style="fill: none; stroke: #b0b0b0; stroke-width: 0.8; stroke-linecap: square"/>
     </g>
     <g id="line2d_6">
      <g>
       <use xlink:href="#m54ce7447ef" x="201.726942" y="307.584" style="stroke: #000000; stroke-width: 0.8"/>
      </g>
     </g>
     <g id="text_3">
      <!-- 40 -->
      <g transform="translate(195.364442 322.182437) scale(0.1 -0.1)">
       <defs>
        <path id="DejaVuSans-34" d="M 2419 4116 
L 825 1625 
L 2419 1625 
L 2419 4116 
z
M 2253 4666 
L 3047 4666 
L 3047 1625 
L 3713 1625 
L 3713 1100 
L 3047 1100 
L 3047 0 
L 2419 0 
L 2419 1100 
L 313 1100 
L 313 1709 
L 2253 4666 
z
" transform="scale(0.015625)"/>
       </defs>
       <use xlink:href="#DejaVuSans-34"/>
       <use xlink:href="#DejaVuSans-30" x="63.623047"/>
      </g>
     </g>
    </g>
    <g id="xtick_4">
     <g id="line2d_7">
      <path d="M 267.313719 307.584 
L 267.313719 41.472 
" clip-path="url(#pfbc83014ca)" style="fill: none; stroke: #b0b0b0; stroke-width: 0.8; stroke-linecap: square"/>
     </g>
     <g id="line2d_8">
      <g>
       <use xlink:href="#m54ce7447ef" x="267.313719" y="307.584" style="stroke: #000000; stroke-width: 0.8"/>
      </g>
     </g>
     <g id="text_4">
      <!-- 60 -->
      <g transform="translate(260.951219 322.182437) scale(0.1 -0.1)">
       <defs>
        <path id="DejaVuSans-36" d="M 2113 2584 
Q 1688 2584 1439 2293 
Q 1191 2003 1191 1497 
Q 1191 994 1439 701 
Q 1688 409 2113 409 
Q 2538 409 2786 701 
Q 3034 994 3034 1497 
Q 3034 2003 2786 2293 
Q 2538 2584 2113 2584 
z
M 3366 4563 
L 3366 3988 
Q 3128 4100 2886 4159 
Q 2644 4219 2406 4219 
Q 1781 4219 1451 3797 
Q 1122 3375 1075 2522 
Q 1259 2794 1537 2939 
Q 1816 3084 2150 3084 
Q 2853 3084 3261 2657 
Q 3669 2231 3669 1497 
Q 3669 778 3244 343 
Q 2819 -91 2113 -91 
Q 1303 -91 875 529 
Q 447 1150 447 2328 
Q 447 3434 972 4092 
Q 1497 4750 2381 4750 
Q 2619 4750 2861 4703 
Q 3103 4656 3366 4563 
z
" transform="scale(0.015625)"/>
       </defs>
       <use xlink:href="#DejaVuSans-36"/>
       <use xlink:href="#DejaVuSans-30" x="63.623047"/>
      </g>
     </g>
    </g>
    <g id="xtick_5">
     <g id="line2d_9">
      <path d="M 332.900496 307.584 
L 332.900496 41.472 
" clip-path="url(#pfbc83014ca)" style="fill: none; stroke: #b0b0b0; stroke-width: 0.8; stroke-linecap: square"/>
     </g>
     <g id="line2d_10">
      <g>
       <use xlink:href="#m54ce7447ef" x="332.900496" y="307.584" style="stroke: #000000; stroke-width: 0.8"/>
      </g>
     </g>
     <g id="text_5">
      <!-- 80 -->
      <g transform="translate(326.537996 322.182437) scale(0.1 -0.1)">
       <defs>
        <path id="DejaVuSans-38" d="M 2034 2216 
Q 1584 2216 1326 1975 
Q 1069 1734 1069 1313 
Q 1069 891 1326 650 
Q 1584 409 2034 409 
Q 2484 409 2743 651 
Q 3003 894 3003 1313 
Q 3003 1734 2745 1975 
Q 2488 2216 2034 2216 
z
M 1403 2484 
Q 997 2584 770 2862 
Q 544 3141 544 3541 
Q 544 4100 942 4425 
Q 1341 4750 2034 4750 
Q 2731 4750 3128 4425 
Q 3525 4100 3525 3541 
Q 3525 3141 3298 2862 
Q 3072 2584 2669 2484 
Q 3125 2378 3379 2068 
Q 3634 1759 3634 1313 
Q 3634 634 3220 271 
Q 2806 -91 2034 -91 
Q 1263 -91 848 271 
Q 434 634 434 1313 
Q 434 1759 690 2068 
Q 947 2378 1403 2484 
z
M 1172 3481 
Q 1172 3119 1398 2916 
Q 1625 2713 2034 2713 
Q 2441 2713 2670 2916 
Q 2900 3119 2900 3481 
Q 2900 3844 2670 4047 
Q 2441 4250 2034 4250 
Q 1625 4250 1398 4047 
Q 1172 3844 1172 3481 
z
" transform="scale(0.015625)"/>
       </defs>
       <use xlink:href="#DejaVuSans-38"/>
       <use xlink:href="#DejaVuSans-30" x="63.623047"/>
      </g>
     </g>
    </g>
    <g id="xtick_6">
     <g id="line2d_11">
      <path d="M 398.487273 307.584 
L 398.487273 41.472 
" clip-path="url(#pfbc83014ca)" style="fill: none; stroke: #b0b0b0; stroke-width: 0.8; stroke-linecap: square"/>
     </g>
     <g id="line2d_12">
      <g>
       <use xlink:href="#m54ce7447ef" x="398.487273" y="307.584" style="stroke: #000000; stroke-width: 0.8"/>
      </g>
     </g>
     <g id="text_6">
      <!-- 100 -->
      <g transform="translate(388.943523 322.182437) scale(0.1 -0.1)">
       <defs>
        <path id="DejaVuSans-31" d="M 794 531 
L 1825 531 
L 1825 4091 
L 703 3866 
L 703 4441 
L 1819 4666 
L 2450 4666 
L 2450 531 
L 3481 531 
L 3481 0 
L 794 0 
L 794 531 
z
" transform="scale(0.015625)"/>
       </defs>
       <use xlink:href="#DejaVuSans-31"/>
       <use xlink:href="#DejaVuSans-30" x="63.623047"/>
       <use xlink:href="#DejaVuSans-30" x="127.246094"/>
      </g>
     </g>
    </g>
    <g id="text_7">
     <!-- Номер бенчмарка -->
     <g transform="translate(189.251406 336.030875) scale(0.1 -0.1)">
      <defs>
       <path id="DejaVuSans-41d" d="M 628 4666 
L 1259 4666 
L 1259 2753 
L 3553 2753 
L 3553 4666 
L 4184 4666 
L 4184 0 
L 3553 0 
L 3553 2222 
L 1259 2222 
L 1259 0 
L 628 0 
L 628 4666 
z
" transform="scale(0.015625)"/>
       <path id="DejaVuSans-43e" d="M 1959 3097 
Q 1497 3097 1228 2736 
Q 959 2375 959 1747 
Q 959 1119 1226 758 
Q 1494 397 1959 397 
Q 2419 397 2687 759 
Q 2956 1122 2956 1747 
Q 2956 2369 2687 2733 
Q 2419 3097 1959 3097 
z
M 1959 3584 
Q 2709 3584 3137 3096 
Q 3566 2609 3566 1747 
Q 3566 888 3137 398 
Q 2709 -91 1959 -91 
Q 1206 -91 779 398 
Q 353 888 353 1747 
Q 353 2609 779 3096 
Q 1206 3584 1959 3584 
z
" transform="scale(0.015625)"/>
       <path id="DejaVuSans-43c" d="M 581 3500 
L 1422 3500 
L 2416 1156 
L 3413 3500 
L 4247 3500 
L 4247 0 
L 3669 0 
L 3669 2950 
L 2703 672 
L 2128 672 
L 1159 2950 
L 1159 0 
L 581 0 
L 581 3500 
z
" transform="scale(0.015625)"/>
       <path id="DejaVuSans-435" d="M 3597 1894 
L 3597 1613 
L 953 1613 
Q 991 1019 1311 708 
Q 1631 397 2203 397 
Q 2534 397 2845 478 
Q 3156 559 3463 722 
L 3463 178 
Q 3153 47 2828 -22 
Q 2503 -91 2169 -91 
Q 1331 -91 842 396 
Q 353 884 353 1716 
Q 353 2575 817 3079 
Q 1281 3584 2069 3584 
Q 2775 3584 3186 3129 
Q 3597 2675 3597 1894 
z
M 3022 2063 
Q 3016 2534 2758 2815 
Q 2500 3097 2075 3097 
Q 1594 3097 1305 2825 
Q 1016 2553 972 2059 
L 3022 2063 
z
" transform="scale(0.015625)"/>
       <path id="DejaVuSans-440" d="M 1159 525 
L 1159 -1331 
L 581 -1331 
L 581 3500 
L 1159 3500 
L 1159 2969 
Q 1341 3281 1617 3432 
Q 1894 3584 2278 3584 
Q 2916 3584 3314 3078 
Q 3713 2572 3713 1747 
Q 3713 922 3314 415 
Q 2916 -91 2278 -91 
Q 1894 -91 1617 61 
Q 1341 213 1159 525 
z
M 3116 1747 
Q 3116 2381 2855 2742 
Q 2594 3103 2138 3103 
Q 1681 3103 1420 2742 
Q 1159 2381 1159 1747 
Q 1159 1113 1420 752 
Q 1681 391 2138 391 
Q 2594 391 2855 752 
Q 3116 1113 3116 1747 
z
" transform="scale(0.015625)"/>
       <path id="DejaVuSans-20" transform="scale(0.015625)"/>
       <path id="DejaVuSans-431" d="M 1991 3584 
Q 2741 3584 3169 3096 
Q 3597 2609 3597 1747 
Q 3597 888 3169 398 
Q 2741 -91 1991 -91 
Q 1238 -91 822 384 
Q 406 859 384 1747 
L 366 2463 
Q 350 2834 350 2963 
Q 350 3463 531 3831 
Q 816 4409 1308 4659 
Q 1800 4909 2625 4916 
Q 3006 4919 3175 4972 
L 3334 4516 
Q 3181 4453 3041 4450 
L 2259 4397 
Q 1866 4369 1628 4231 
Q 1006 3866 947 3388 
L 925 3213 
Q 1331 3584 1991 3584 
z
M 1991 3097 
Q 1528 3097 1259 2736 
Q 991 2375 991 1747 
Q 991 1119 1258 758 
Q 1525 397 1991 397 
Q 2450 397 2719 759 
Q 2988 1122 2988 1747 
Q 2988 2369 2719 2733 
Q 2450 3097 1991 3097 
z
" transform="scale(0.015625)"/>
       <path id="DejaVuSans-43d" d="M 581 3500 
L 1159 3500 
L 1159 2072 
L 3025 2072 
L 3025 3500 
L 3603 3500 
L 3603 0 
L 3025 0 
L 3025 1613 
L 1159 1613 
L 1159 0 
L 581 0 
L 581 3500 
z
" transform="scale(0.015625)"/>
       <path id="DejaVuSans-447" d="M 2625 0 
L 2625 1472 
L 1553 1472 
Q 1075 1472 756 1769 
Q 469 2038 469 2613 
L 469 3500 
L 1044 3500 
L 1044 2666 
Q 1044 2300 1206 2116 
Q 1372 1931 1697 1931 
L 2625 1931 
L 2625 3500 
L 3200 3500 
L 3200 0 
L 2625 0 
z
" transform="scale(0.015625)"/>
       <path id="DejaVuSans-430" d="M 2194 1759 
Q 1497 1759 1228 1600 
Q 959 1441 959 1056 
Q 959 750 1161 570 
Q 1363 391 1709 391 
Q 2188 391 2477 730 
Q 2766 1069 2766 1631 
L 2766 1759 
L 2194 1759 
z
M 3341 1997 
L 3341 0 
L 2766 0 
L 2766 531 
Q 2569 213 2275 61 
Q 1981 -91 1556 -91 
Q 1019 -91 701 211 
Q 384 513 384 1019 
Q 384 1609 779 1909 
Q 1175 2209 1959 2209 
L 2766 2209 
L 2766 2266 
Q 2766 2663 2505 2880 
Q 2244 3097 1772 3097 
Q 1472 3097 1187 3025 
Q 903 2953 641 2809 
L 641 3341 
Q 956 3463 1253 3523 
Q 1550 3584 1831 3584 
Q 2591 3584 2966 3190 
Q 3341 2797 3341 1997 
z
" transform="scale(0.015625)"/>
       <path id="DejaVuSans-43a" d="M 581 3500 
L 1153 3500 
L 1153 1856 
L 2775 3500 
L 3481 3500 
L 2144 2147 
L 3653 0 
L 3009 0 
L 1769 1766 
L 1153 1141 
L 1153 0 
L 581 0 
L 581 3500 
z
" transform="scale(0.015625)"/>
      </defs>
      <use xlink:href="#DejaVuSans-41d"/>
      <use xlink:href="#DejaVuSans-43e" x="75.195312"/>
      <use xlink:href="#DejaVuSans-43c" x="136.376953"/>
      <use xlink:href="#DejaVuSans-435" x="211.816406"/>
      <use xlink:href="#DejaVuSans-440" x="273.339844"/>
      <use xlink:href="#DejaVuSans-20" x="336.816406"/>
      <use xlink:href="#DejaVuSans-431" x="368.603516"/>
      <use xlink:href="#DejaVuSans-435" x="430.273438"/>
      <use xlink:href="#DejaVuSans-43d" x="491.796875"/>
      <use xlink:href="#DejaVuSans-447" x="557.177734"/>
      <use xlink:href="#DejaVuSans-43c" x="616.259766"/>
      <use xlink:href="#DejaVuSans-430" x="691.699219"/>
      <use xlink:href="#DejaVuSans-440" x="752.978516"/>
      <use xlink:href="#DejaVuSans-43a" x="816.455078"/>
      <use xlink:href="#DejaVuSans-430" x="876.855469"/>
     </g>
    </g>
   </g>
   <g id="matplotlib.axis_2">
    <g id="ytick_1">
     <g id="line2d_13">
      <path d="M 57.6 300.672409 
L 414.72 300.672409 
" clip-path="url(#pfbc83014ca)" style="fill: none; stroke: #b0b0b0; stroke-width: 0.8; stroke-linecap: square"/>
     </g>
     <g id="line2d_14">
      <defs>
       <path id="mdd64c3354a" d="M 0 0 
L -3.5 0 
" style="stroke: #000000; stroke-width: 0.8"/>
      </defs>
      <g>
       <use xlink:href="#mdd64c3354a" x="57.6" y="300.672409" style="stroke: #000000; stroke-width: 0.8"/>
      </g>
     </g>
     <g id="text_8">
      <!-- 1.0 -->
      <g transform="translate(34.696875 304.471628) scale(0.1 -0.1)">
       <defs>
        <path id="DejaVuSans-2e" d="M 684 794 
L 1344 794 
L 1344 0 
L 684 0 
L 684 794 
z
" transform="scale(0.015625)"/>
       </defs>
       <use xlink:href="#DejaVuSans-31"/>
       <use xlink:href="#DejaVuSans-2e" x="63.623047"/>
       <use xlink:href="#DejaVuSans-30" x="95.410156"/>
      </g>
     </g>
    </g>
    <g id="ytick_2">
     <g id="line2d_15">
      <path d="M 57.6 267.251559 
L 414.72 267.251559 
" clip-path="url(#pfbc83014ca)" style="fill: none; stroke: #b0b0b0; stroke-width: 0.8; stroke-linecap: square"/>
     </g>
     <g id="line2d_16">
      <g>
       <use xlink:href="#mdd64c3354a" x="57.6" y="267.251559" style="stroke: #000000; stroke-width: 0.8"/>
      </g>
     </g>
     <g id="text_9">
      <!-- 1.2 -->
      <g transform="translate(34.696875 271.050778) scale(0.1 -0.1)">
       <use xlink:href="#DejaVuSans-31"/>
       <use xlink:href="#DejaVuSans-2e" x="63.623047"/>
       <use xlink:href="#DejaVuSans-32" x="95.410156"/>
      </g>
     </g>
    </g>
    <g id="ytick_3">
     <g id="line2d_17">
      <path d="M 57.6 233.830709 
L 414.72 233.830709 
" clip-path="url(#pfbc83014ca)" style="fill: none; stroke: #b0b0b0; stroke-width: 0.8; stroke-linecap: square"/>
     </g>
     <g id="line2d_18">
      <g>
       <use xlink:href="#mdd64c3354a" x="57.6" y="233.830709" style="stroke: #000000; stroke-width: 0.8"/>
      </g>
     </g>
     <g id="text_10">
      <!-- 1.4 -->
      <g transform="translate(34.696875 237.629928) scale(0.1 -0.1)">
       <use xlink:href="#DejaVuSans-31"/>
       <use xlink:href="#DejaVuSans-2e" x="63.623047"/>
       <use xlink:href="#DejaVuSans-34" x="95.410156"/>
      </g>
     </g>
    </g>
    <g id="ytick_4">
     <g id="line2d_19">
      <path d="M 57.6 200.409858 
L 414.72 200.409858 
" clip-path="url(#pfbc83014ca)" style="fill: none; stroke: #b0b0b0; stroke-width: 0.8; stroke-linecap: square"/>
     </g>
     <g id="line2d_20">
      <g>
       <use xlink:href="#mdd64c3354a" x="57.6" y="200.409858" style="stroke: #000000; stroke-width: 0.8"/>
      </g>
     </g>
     <g id="text_11">
      <!-- 1.6 -->
      <g transform="translate(34.696875 204.209077) scale(0.1 -0.1)">
       <use xlink:href="#DejaVuSans-31"/>
       <use xlink:href="#DejaVuSans-2e" x="63.623047"/>
       <use xlink:href="#DejaVuSans-36" x="95.410156"/>
      </g>
     </g>
    </g>
    <g id="ytick_5">
     <g id="line2d_21">
      <path d="M 57.6 166.989008 
L 414.72 166.989008 
" clip-path="url(#pfbc83014ca)" style="fill: none; stroke: #b0b0b0; stroke-width: 0.8; stroke-linecap: square"/>
     </g>
     <g id="line2d_22">
      <g>
       <use xlink:href="#mdd64c3354a" x="57.6" y="166.989008" style="stroke: #000000; stroke-width: 0.8"/>
      </g>
     </g>
     <g id="text_12">
      <!-- 1.8 -->
      <g transform="translate(34.696875 170.788227) scale(0.1 -0.1)">
       <use xlink:href="#DejaVuSans-31"/>
       <use xlink:href="#DejaVuSans-2e" x="63.623047"/>
       <use xlink:href="#DejaVuSans-38" x="95.410156"/>
      </g>
     </g>
    </g>
    <g id="ytick_6">
     <g id="line2d_23">
      <path d="M 57.6 133.568158 
L 414.72 133.568158 
" clip-path="url(#pfbc83014ca)" style="fill: none; stroke: #b0b0b0; stroke-width: 0.8; stroke-linecap: square"/>
     </g>
     <g id="line2d_24">
      <g>
       <use xlink:href="#mdd64c3354a" x="57.6" y="133.568158" style="stroke: #000000; stroke-width: 0.8"/>
      </g>
     </g>
     <g id="text_13">
      <!-- 2.0 -->
      <g transform="translate(34.696875 137.367377) scale(0.1 -0.1)">
       <use xlink:href="#DejaVuSans-32"/>
       <use xlink:href="#DejaVuSans-2e" x="63.623047"/>
       <use xlink:href="#DejaVuSans-30" x="95.410156"/>
      </g>
     </g>
    </g>
    <g id="ytick_7">
     <g id="line2d_25">
      <path d="M 57.6 100.147308 
L 414.72 100.147308 
" clip-path="url(#pfbc83014ca)" style="fill: none; stroke: #b0b0b0; stroke-width: 0.8; stroke-linecap: square"/>
     </g>
     <g id="line2d_26">
      <g>
       <use xlink:href="#mdd64c3354a" x="57.6" y="100.147308" style="stroke: #000000; stroke-width: 0.8"/>
      </g>
     </g>
     <g id="text_14">
      <!-- 2.2 -->
      <g transform="translate(34.696875 103.946526) scale(0.1 -0.1)">
       <use xlink:href="#DejaVuSans-32"/>
       <use xlink:href="#DejaVuSans-2e" x="63.623047"/>
       <use xlink:href="#DejaVuSans-32" x="95.410156"/>
      </g>
     </g>
    </g>
    <g id="ytick_8">
     <g id="line2d_27">
      <path d="M 57.6 66.726457 
L 414.72 66.726457 
" clip-path="url(#pfbc83014ca)" style="fill: none; stroke: #b0b0b0; stroke-width: 0.8; stroke-linecap: square"/>
     </g>
     <g id="line2d_28">
      <g>
       <use xlink:href="#mdd64c3354a" x="57.6" y="66.726457" style="stroke: #000000; stroke-width: 0.8"/>
      </g>
     </g>
     <g id="text_15">
      <!-- 2.4 -->
      <g transform="translate(34.696875 70.525676) scale(0.1 -0.1)">
       <use xlink:href="#DejaVuSans-32"/>
       <use xlink:href="#DejaVuSans-2e" x="63.623047"/>
       <use xlink:href="#DejaVuSans-34" x="95.410156"/>
      </g>
     </g>
    </g>
    <g id="text_16">
     <!-- NsPerOp -->
     <g transform="translate(28.617187 195.949094) rotate(-90) scale(0.1 -0.1)">
      <defs>
       <path id="DejaVuSans-4e" d="M 628 4666 
L 1478 4666 
L 3547 763 
L 3547 4666 
L 4159 4666 
L 4159 0 
L 3309 0 
L 1241 3903 
L 1241 0 
L 628 0 
L 628 4666 
z
" transform="scale(0.015625)"/>
       <path id="DejaVuSans-73" d="M 2834 3397 
L 2834 2853 
Q 2591 2978 2328 3040 
Q 2066 3103 1784 3103 
Q 1356 3103 1142 2972 
Q 928 2841 928 2578 
Q 928 2378 1081 2264 
Q 1234 2150 1697 2047 
L 1894 2003 
Q 2506 1872 2764 1633 
Q 3022 1394 3022 966 
Q 3022 478 2636 193 
Q 2250 -91 1575 -91 
Q 1294 -91 989 -36 
Q 684 19 347 128 
L 347 722 
Q 666 556 975 473 
Q 1284 391 1588 391 
Q 1994 391 2212 530 
Q 2431 669 2431 922 
Q 2431 1156 2273 1281 
Q 2116 1406 1581 1522 
L 1381 1569 
Q 847 1681 609 1914 
Q 372 2147 372 2553 
Q 372 3047 722 3315 
Q 1072 3584 1716 3584 
Q 2034 3584 2315 3537 
Q 2597 3491 2834 3397 
z
" transform="scale(0.015625)"/>
       <path id="DejaVuSans-50" d="M 1259 4147 
L 1259 2394 
L 2053 2394 
Q 2494 2394 2734 2622 
Q 2975 2850 2975 3272 
Q 2975 3691 2734 3919 
Q 2494 4147 2053 4147 
L 1259 4147 
z
M 628 4666 
L 2053 4666 
Q 2838 4666 3239 4311 
Q 3641 3956 3641 3272 
Q 3641 2581 3239 2228 
Q 2838 1875 2053 1875 
L 1259 1875 
L 1259 0 
L 628 0 
L 628 4666 
z
" transform="scale(0.015625)"/>
       <path id="DejaVuSans-65" d="M 3597 1894 
L 3597 1613 
L 953 1613 
Q 991 1019 1311 708 
Q 1631 397 2203 397 
Q 2534 397 2845 478 
Q 3156 559 3463 722 
L 3463 178 
Q 3153 47 2828 -22 
Q 2503 -91 2169 -91 
Q 1331 -91 842 396 
Q 353 884 353 1716 
Q 353 2575 817 3079 
Q 1281 3584 2069 3584 
Q 2775 3584 3186 3129 
Q 3597 2675 3597 1894 
z
M 3022 2063 
Q 3016 2534 2758 2815 
Q 2500 3097 2075 3097 
Q 1594 3097 1305 2825 
Q 1016 2553 972 2059 
L 3022 2063 
z
" transform="scale(0.015625)"/>
       <path id="DejaVuSans-72" d="M 2631 2963 
Q 2534 3019 2420 3045 
Q 2306 3072 2169 3072 
Q 1681 3072 1420 2755 
Q 1159 2438 1159 1844 
L 1159 0 
L 581 0 
L 581 3500 
L 1159 3500 
L 1159 2956 
Q 1341 3275 1631 3429 
Q 1922 3584 2338 3584 
Q 2397 3584 2469 3576 
Q 2541 3569 2628 3553 
L 2631 2963 
z
" transform="scale(0.015625)"/>
       <path id="DejaVuSans-4f" d="M 2522 4238 
Q 1834 4238 1429 3725 
Q 1025 3213 1025 2328 
Q 1025 1447 1429 934 
Q 1834 422 2522 422 
Q 3209 422 3611 934 
Q 4013 1447 4013 2328 
Q 4013 3213 3611 3725 
Q 3209 4238 2522 4238 
z
M 2522 4750 
Q 3503 4750 4090 4092 
Q 4678 3434 4678 2328 
Q 4678 1225 4090 567 
Q 3503 -91 2522 -91 
Q 1538 -91 948 565 
Q 359 1222 359 2328 
Q 359 3434 948 4092 
Q 1538 4750 2522 4750 
z
" transform="scale(0.015625)"/>
       <path id="DejaVuSans-70" d="M 1159 525 
L 1159 -1331 
L 581 -1331 
L 581 3500 
L 1159 3500 
L 1159 2969 
Q 1341 3281 1617 3432 
Q 1894 3584 2278 3584 
Q 2916 3584 3314 3078 
Q 3713 2572 3713 1747 
Q 3713 922 3314 415 
Q 2916 -91 2278 -91 
Q 1894 -91 1617 61 
Q 1341 213 1159 525 
z
M 3116 1747 
Q 3116 2381 2855 2742 
Q 2594 3103 2138 3103 
Q 1681 3103 1420 2742 
Q 1159 2381 1159 1747 
Q 1159 1113 1420 752 
Q 1681 391 2138 391 
Q 2594 391 2855 752 
Q 3116 1113 3116 1747 
z
" transform="scale(0.015625)"/>
      </defs>
      <use xlink:href="#DejaVuSans-4e"/>
      <use xlink:href="#DejaVuSans-73" x="74.804688"/>
      <use xlink:href="#DejaVuSans-50" x="126.904297"/>
      <use xlink:href="#DejaVuSans-65" x="183.582031"/>
      <use xlink:href="#DejaVuSans-72" x="245.105469"/>
      <use xlink:href="#DejaVuSans-4f" x="286.21875"/>
      <use xlink:href="#DejaVuSans-70" x="364.929688"/>
     </g>
    </g>
    <g id="text_17">
     <!-- 1e6 -->
     <g transform="translate(57.6 38.472) scale(0.1 -0.1)">
      <use xlink:href="#DejaVuSans-31"/>
      <use xlink:href="#DejaVuSans-65" x="63.623047"/>
      <use xlink:href="#DejaVuSans-36" x="125.146484"/>
     </g>
    </g>
   </g>
   <g id="line2d_29">
    <path d="M 73.832727 293.029896 
L 77.112066 288.807005 
L 80.391405 292.516886 
L 83.670744 293.712183 
L 86.950083 290.384636 
L 90.229421 292.399746 
L 93.50876 292.850928 
L 96.788099 292.866636 
L 100.067438 290.751764 
L 103.346777 294.863699 
L 106.626116 285.240332 
L 109.905455 291.99903 
L 113.184793 289.94298 
L 116.464132 291.962602 
L 119.743471 294.137463 
L 123.02281 290.531855 
L 126.302149 292.868307 
L 129.581488 292.623666 
L 132.860826 286.376641 
L 136.140165 293.271863 
L 139.419504 293.738084 
L 142.698843 287.898793 
L 145.978182 290.623929 
L 149.257521 293.506478 
L 152.53686 294.984348 
L 155.816198 291.801346 
L 159.095537 293.698982 
L 162.374876 288.761887 
L 165.654215 291.846965 
L 168.933554 287.878239 
L 172.212893 289.073703 
L 175.492231 292.44052 
L 178.77157 294.046392 
L 182.050909 283.972345 
L 185.330248 289.185663 
L 188.609587 291.44909 
L 191.888926 287.992873 
L 195.168264 292.351453 
L 198.447603 290.001633 
L 201.726942 291.070766 
L 205.006281 293.929084 
L 208.28562 288.711923 
L 211.564959 291.372724 
L 214.844298 295.488 
L 218.123636 291.896094 
L 221.402975 292.790102 
L 224.682314 282.138543 
L 227.961653 291.709272 
L 231.240992 290.719179 
L 234.520331 289.302302 
L 237.799669 291.037512 
L 241.079008 293.325003 
L 244.358347 293.560118 
L 247.637686 291.013282 
L 250.917025 293.530708 
L 254.196364 291.182893 
L 257.475702 292.118176 
L 260.755041 290.657852 
L 264.03438 292.495163 
L 267.313719 292.674466 
L 270.593058 291.547348 
L 273.872397 291.063581 
L 277.151736 292.569691 
L 280.431074 293.463866 
L 283.710413 291.855655 
L 286.989752 285.258212 
L 290.269091 288.700392 
L 293.54843 257.858963 
L 296.827769 289.297289 
L 300.107107 291.31006 
L 303.386446 286.238445 
L 306.665785 274.561535 
L 309.945124 290.115598 
L 313.224463 289.651717 
L 316.503802 288.251717 
L 319.78314 289.648208 
L 323.062479 289.321853 
L 326.341818 290.47387 
L 329.621157 287.124599 
L 332.900496 287.03971 
L 336.179835 287.330806 
L 339.459174 292.23047 
L 342.738512 292.522902 
L 346.017851 291.638754 
L 349.29719 274.544991 
L 352.576529 192.248988 
L 355.855868 288.272438 
L 359.135207 284.885569 
L 362.414545 291.854652 
L 365.693884 289.450523 
L 368.973223 292.772222 
L 372.252562 234.465037 
L 375.531901 289.471913 
L 378.81124 293.250975 
L 382.090579 274.990658 
L 385.369917 284.84747 
L 388.649256 287.926867 
L 391.928595 288.011589 
L 395.207934 284.665994 
L 398.487273 250.16916 
" clip-path="url(#pfbc83014ca)" style="fill: none; stroke: #8b008b; stroke-width: 1.5; stroke-linecap: square"/>
    <defs>
     <path id="mfb6513c9ed" d="M 0 -3 
L -3 3 
L 3 3 
z
" style="stroke: #8b008b; stroke-linejoin: miter"/>
    </defs>
    <g clip-path="url(#pfbc83014ca)">
     <use xlink:href="#mfb6513c9ed" x="73.832727" y="293.029896" style="fill: #8b008b; stroke: #8b008b; stroke-linejoin: miter"/>
     <use xlink:href="#mfb6513c9ed" x="77.112066" y="288.807005" style="fill: #8b008b; stroke: #8b008b; stroke-linejoin: miter"/>
     <use xlink:href="#mfb6513c9ed" x="80.391405" y="292.516886" style="fill: #8b008b; stroke: #8b008b; stroke-linejoin: miter"/>
     <use xlink:href="#mfb6513c9ed" x="83.670744" y="293.712183" style="fill: #8b008b; stroke: #8b008b; stroke-linejoin: miter"/>
     <use xlink:href="#mfb6513c9ed" x="86.950083" y="290.384636" style="fill: #8b008b; stroke: #8b008b; stroke-linejoin: miter"/>
     <use xlink:href="#mfb6513c9ed" x="90.229421" y="292.399746" style="fill: #8b008b; stroke: #8b008b; stroke-linejoin: miter"/>
     <use xlink:href="#mfb6513c9ed" x="93.50876" y="292.850928" style="fill: #8b008b; stroke: #8b008b; stroke-linejoin: miter"/>
     <use xlink:href="#mfb6513c9ed" x="96.788099" y="292.866636" style="fill: #8b008b; stroke: #8b008b; stroke-linejoin: miter"/>
     <use xlink:href="#mfb6513c9ed" x="100.067438" y="290.751764" style="fill: #8b008b; stroke: #8b008b; stroke-linejoin: miter"/>
     <use xlink:href="#mfb6513c9ed" x="103.346777" y="294.863699" style="fill: #8b008b; stroke: #8b008b; stroke-linejoin: miter"/>
     <use xlink:href="#mfb6513c9ed" x="106.626116" y="285.240332" style="fill: #8b008b; stroke: #8b008b; stroke-linejoin: miter"/>
     <use xlink:href="#mfb6513c9ed" x="109.905455" y="291.99903" style="fill: #8b008b; stroke: #8b008b; stroke-linejoin: miter"/>
     <use xlink:href="#mfb6513c9ed" x="113.184793" y="289.94298" style="fill: #8b008b; stroke: #8b008b; stroke-linejoin: miter"/>
     <use xlink:href="#mfb6513c9ed" x="116.464132" y="291.962602" style="fill: #8b008b; stroke: #8b008b; stroke-linejoin: miter"/>
     <use xlink:href="#mfb6513c9ed" x="119.743471" y="294.137463" style="fill: #8b008b; stroke: #8b008b; stroke-linejoin: miter"/>
     <use xlink:href="#mfb6513c9ed" x="123.02281" y="290.531855" style="fill: #8b008b; stroke: #8b008b; stroke-linejoin: miter"/>
     <use xlink:href="#mfb6513c9ed" x="126.302149" y="292.868307" style="fill: #8b008b; stroke: #8b008b; stroke-linejoin: miter"/>
     <use xlink:href="#mfb6513c9ed" x="129.581488" y="292.623666" style="fill: #8b008b; stroke: #8b008b; stroke-linejoin: miter"/>
     <use xlink:href="#mfb6513c9ed" x="132.860826" y="286.376641" style="fill: #8b008b; stroke: #8b008b; stroke-linejoin: miter"/>
     <use xlink:href="#mfb6513c9ed" x="136.140165" y="293.271863" style="fill: #8b008b; stroke: #8b008b; stroke-linejoin: miter"/>
     <use xlink:href="#mfb6513c9ed" x="139.419504" y="293.738084" style="fill: #8b008b; stroke: #8b008b; stroke-linejoin: miter"/>
     <use xlink:href="#mfb6513c9ed" x="142.698843" y="287.898793" style="fill: #8b008b; stroke: #8b008b; stroke-linejoin: miter"/>
     <use xlink:href="#mfb6513c9ed" x="145.978182" y="290.623929" style="fill: #8b008b; stroke: #8b008b; stroke-linejoin: miter"/>
     <use xlink:href="#mfb6513c9ed" x="149.257521" y="293.506478" style="fill: #8b008b; stroke: #8b008b; stroke-linejoin: miter"/>
     <use xlink:href="#mfb6513c9ed" x="152.53686" y="294.984348" style="fill: #8b008b; stroke: #8b008b; stroke-linejoin: miter"/>
     <use xlink:href="#mfb6513c9ed" x="155.816198" y="291.801346" style="fill: #8b008b; stroke: #8b008b; stroke-linejoin: miter"/>
     <use xlink:href="#mfb6513c9ed" x="159.095537" y="293.698982" style="fill: #8b008b; stroke: #8b008b; stroke-linejoin: miter"/>
     <use xlink:href="#mfb6513c9ed" x="162.374876" y="288.761887" style="fill: #8b008b; stroke: #8b008b; stroke-linejoin: miter"/>
     <use xlink:href="#mfb6513c9ed" x="165.654215" y="291.846965" style="fill: #8b008b; stroke: #8b008b; stroke-linejoin: miter"/>
     <use xlink:href="#mfb6513c9ed" x="168.933554" y="287.878239" style="fill: #8b008b; stroke: #8b008b; stroke-linejoin: miter"/>
     <use xlink:href="#mfb6513c9ed" x="172.212893" y="289.073703" style="fill: #8b008b; stroke: #8b008b; stroke-linejoin: miter"/>
     <use xlink:href="#mfb6513c9ed" x="175.492231" y="292.44052" style="fill: #8b008b; stroke: #8b008b; stroke-linejoin: miter"/>
     <use xlink:href="#mfb6513c9ed" x="178.77157" y="294.046392" style="fill: #8b008b; stroke: #8b008b; stroke-linejoin: miter"/>
     <use xlink:href="#mfb6513c9ed" x="182.050909" y="283.972345" style="fill: #8b008b; stroke: #8b008b; stroke-linejoin: miter"/>
     <use xlink:href="#mfb6513c9ed" x="185.330248" y="289.185663" style="fill: #8b008b; stroke: #8b008b; stroke-linejoin: miter"/>
     <use xlink:href="#mfb6513c9ed" x="188.609587" y="291.44909" style="fill: #8b008b; stroke: #8b008b; stroke-linejoin: miter"/>
     <use xlink:href="#mfb6513c9ed" x="191.888926" y="287.992873" style="fill: #8b008b; stroke: #8b008b; stroke-linejoin: miter"/>
     <use xlink:href="#mfb6513c9ed" x="195.168264" y="292.351453" style="fill: #8b008b; stroke: #8b008b; stroke-linejoin: miter"/>
     <use xlink:href="#mfb6513c9ed" x="198.447603" y="290.001633" style="fill: #8b008b; stroke: #8b008b; stroke-linejoin: miter"/>
     <use xlink:href="#mfb6513c9ed" x="201.726942" y="291.070766" style="fill: #8b008b; stroke: #8b008b; stroke-linejoin: miter"/>
     <use xlink:href="#mfb6513c9ed" x="205.006281" y="293.929084" style="fill: #8b008b; stroke: #8b008b; stroke-linejoin: miter"/>
     <use xlink:href="#mfb6513c9ed" x="208.28562" y="288.711923" style="fill: #8b008b; stroke: #8b008b; stroke-linejoin: miter"/>
     <use xlink:href="#mfb6513c9ed" x="211.564959" y="291.372724" style="fill: #8b008b; stroke: #8b008b; stroke-linejoin: miter"/>
     <use xlink:href="#mfb6513c9ed" x="214.844298" y="295.488" style="fill: #8b008b; stroke: #8b008b; stroke-linejoin: miter"/>
     <use xlink:href="#mfb6513c9ed" x="218.123636" y="291.896094" style="fill: #8b008b; stroke: #8b008b; stroke-linejoin: miter"/>
     <use xlink:href="#mfb6513c9ed" x="221.402975" y="292.790102" style="fill: #8b008b; stroke: #8b008b; stroke-linejoin: miter"/>
     <use xlink:href="#mfb6513c9ed" x="224.682314" y="282.138543" style="fill: #8b008b; stroke: #8b008b; stroke-linejoin: miter"/>
     <use xlink:href="#mfb6513c9ed" x="227.961653" y="291.709272" style="fill: #8b008b; stroke: #8b008b; stroke-linejoin: miter"/>
     <use xlink:href="#mfb6513c9ed" x="231.240992" y="290.719179" style="fill: #8b008b; stroke: #8b008b; stroke-linejoin: miter"/>
     <use xlink:href="#mfb6513c9ed" x="234.520331" y="289.302302" style="fill: #8b008b; stroke: #8b008b; stroke-linejoin: miter"/>
     <use xlink:href="#mfb6513c9ed" x="237.799669" y="291.037512" style="fill: #8b008b; stroke: #8b008b; stroke-linejoin: miter"/>
     <use xlink:href="#mfb6513c9ed" x="241.079008" y="293.325003" style="fill: #8b008b; stroke: #8b008b; stroke-linejoin: miter"/>
     <use xlink:href="#mfb6513c9ed" x="244.358347" y="293.560118" style="fill: #8b008b; stroke: #8b008b; stroke-linejoin: miter"/>
     <use xlink:href="#mfb6513c9ed" x="247.637686" y="291.013282" style="fill: #8b008b; stroke: #8b008b; stroke-linejoin: miter"/>
     <use xlink:href="#mfb6513c9ed" x="250.917025" y="293.530708" style="fill: #8b008b; stroke: #8b008b; stroke-linejoin: miter"/>
     <use xlink:href="#mfb6513c9ed" x="254.196364" y="291.182893" style="fill: #8b008b; stroke: #8b008b; stroke-linejoin: miter"/>
     <use xlink:href="#mfb6513c9ed" x="257.475702" y="292.118176" style="fill: #8b008b; stroke: #8b008b; stroke-linejoin: miter"/>
     <use xlink:href="#mfb6513c9ed" x="260.755041" y="290.657852" style="fill: #8b008b; stroke: #8b008b; stroke-linejoin: miter"/>
     <use xlink:href="#mfb6513c9ed" x="264.03438" y="292.495163" style="fill: #8b008b; stroke: #8b008b; stroke-linejoin: miter"/>
     <use xlink:href="#mfb6513c9ed" x="267.313719" y="292.674466" style="fill: #8b008b; stroke: #8b008b; stroke-linejoin: miter"/>
     <use xlink:href="#mfb6513c9ed" x="270.593058" y="291.547348" style="fill: #8b008b; stroke: #8b008b; stroke-linejoin: miter"/>
     <use xlink:href="#mfb6513c9ed" x="273.872397" y="291.063581" style="fill: #8b008b; stroke: #8b008b; stroke-linejoin: miter"/>
     <use xlink:href="#mfb6513c9ed" x="277.151736" y="292.569691" style="fill: #8b008b; stroke: #8b008b; stroke-linejoin: miter"/>
     <use xlink:href="#mfb6513c9ed" x="280.431074" y="293.463866" style="fill: #8b008b; stroke: #8b008b; stroke-linejoin: miter"/>
     <use xlink:href="#mfb6513c9ed" x="283.710413" y="291.855655" style="fill: #8b008b; stroke: #8b008b; stroke-linejoin: miter"/>
     <use xlink:href="#mfb6513c9ed" x="286.989752" y="285.258212" style="fill: #8b008b; stroke: #8b008b; stroke-linejoin: miter"/>
     <use xlink:href="#mfb6513c9ed" x="290.269091" y="288.700392" style="fill: #8b008b; stroke: #8b008b; stroke-linejoin: miter"/>
     <use xlink:href="#mfb6513c9ed" x="293.54843" y="257.858963" style="fill: #8b008b; stroke: #8b008b; stroke-linejoin: miter"/>
     <use xlink:href="#mfb6513c9ed" x="296.827769" y="289.297289" style="fill: #8b008b; stroke: #8b008b; stroke-linejoin: miter"/>
     <use xlink:href="#mfb6513c9ed" x="300.107107" y="291.31006" style="fill: #8b008b; stroke: #8b008b; stroke-linejoin: miter"/>
     <use xlink:href="#mfb6513c9ed" x="303.386446" y="286.238445" style="fill: #8b008b; stroke: #8b008b; stroke-linejoin: miter"/>
     <use xlink:href="#mfb6513c9ed" x="306.665785" y="274.561535" style="fill: #8b008b; stroke: #8b008b; stroke-linejoin: miter"/>
     <use xlink:href="#mfb6513c9ed" x="309.945124" y="290.115598" style="fill: #8b008b; stroke: #8b008b; stroke-linejoin: miter"/>
     <use xlink:href="#mfb6513c9ed" x="313.224463" y="289.651717" style="fill: #8b008b; stroke: #8b008b; stroke-linejoin: miter"/>
     <use xlink:href="#mfb6513c9ed" x="316.503802" y="288.251717" style="fill: #8b008b; stroke: #8b008b; stroke-linejoin: miter"/>
     <use xlink:href="#mfb6513c9ed" x="319.78314" y="289.648208" style="fill: #8b008b; stroke: #8b008b; stroke-linejoin: miter"/>
     <use xlink:href="#mfb6513c9ed" x="323.062479" y="289.321853" style="fill: #8b008b; stroke: #8b008b; stroke-linejoin: miter"/>
     <use xlink:href="#mfb6513c9ed" x="326.341818" y="290.47387" style="fill: #8b008b; stroke: #8b008b; stroke-linejoin: miter"/>
     <use xlink:href="#mfb6513c9ed" x="329.621157" y="287.124599" style="fill: #8b008b; stroke: #8b008b; stroke-linejoin: miter"/>
     <use xlink:href="#mfb6513c9ed" x="332.900496" y="287.03971" style="fill: #8b008b; stroke: #8b008b; stroke-linejoin: miter"/>
     <use xlink:href="#mfb6513c9ed" x="336.179835" y="287.330806" style="fill: #8b008b; stroke: #8b008b; stroke-linejoin: miter"/>
     <use xlink:href="#mfb6513c9ed" x="339.459174" y="292.23047" style="fill: #8b008b; stroke: #8b008b; stroke-linejoin: miter"/>
     <use xlink:href="#mfb6513c9ed" x="342.738512" y="292.522902" style="fill: #8b008b; stroke: #8b008b; stroke-linejoin: miter"/>
     <use xlink:href="#mfb6513c9ed" x="346.017851" y="291.638754" style="fill: #8b008b; stroke: #8b008b; stroke-linejoin: miter"/>
     <use xlink:href="#mfb6513c9ed" x="349.29719" y="274.544991" style="fill: #8b008b; stroke: #8b008b; stroke-linejoin: miter"/>
     <use xlink:href="#mfb6513c9ed" x="352.576529" y="192.248988" style="fill: #8b008b; stroke: #8b008b; stroke-linejoin: miter"/>
     <use xlink:href="#mfb6513c9ed" x="355.855868" y="288.272438" style="fill: #8b008b; stroke: #8b008b; stroke-linejoin: miter"/>
     <use xlink:href="#mfb6513c9ed" x="359.135207" y="284.885569" style="fill: #8b008b; stroke: #8b008b; stroke-linejoin: miter"/>
     <use xlink:href="#mfb6513c9ed" x="362.414545" y="291.854652" style="fill: #8b008b; stroke: #8b008b; stroke-linejoin: miter"/>
     <use xlink:href="#mfb6513c9ed" x="365.693884" y="289.450523" style="fill: #8b008b; stroke: #8b008b; stroke-linejoin: miter"/>
     <use xlink:href="#mfb6513c9ed" x="368.973223" y="292.772222" style="fill: #8b008b; stroke: #8b008b; stroke-linejoin: miter"/>
     <use xlink:href="#mfb6513c9ed" x="372.252562" y="234.465037" style="fill: #8b008b; stroke: #8b008b; stroke-linejoin: miter"/>
     <use xlink:href="#mfb6513c9ed" x="375.531901" y="289.471913" style="fill: #8b008b; stroke: #8b008b; stroke-linejoin: miter"/>
     <use xlink:href="#mfb6513c9ed" x="378.81124" y="293.250975" style="fill: #8b008b; stroke: #8b008b; stroke-linejoin: miter"/>
     <use xlink:href="#mfb6513c9ed" x="382.090579" y="274.990658" style="fill: #8b008b; stroke: #8b008b; stroke-linejoin: miter"/>
     <use xlink:href="#mfb6513c9ed" x="385.369917" y="284.84747" style="fill: #8b008b; stroke: #8b008b; stroke-linejoin: miter"/>
     <use xlink:href="#mfb6513c9ed" x="388.649256" y="287.926867" style="fill: #8b008b; stroke: #8b008b; stroke-linejoin: miter"/>
     <use xlink:href="#mfb6513c9ed" x="391.928595" y="288.011589" style="fill: #8b008b; stroke: #8b008b; stroke-linejoin: miter"/>
     <use xlink:href="#mfb6513c9ed" x="395.207934" y="284.665994" style="fill: #8b008b; stroke: #8b008b; stroke-linejoin: miter"/>
     <use xlink:href="#mfb6513c9ed" x="398.487273" y="250.16916" style="fill: #8b008b; stroke: #8b008b; stroke-linejoin: miter"/>
    </g>
   </g>
   <g id="line2d_30">
    <path d="M 73.832727 130.350231 
L 77.112066 120.812756 
L 80.391405 127.604708 
L 83.670744 130.206856 
L 86.950083 132.315043 
L 90.229421 130.424426 
L 93.50876 129.820678 
L 96.788099 131.323948 
L 100.067438 128.781122 
L 103.346777 130.506808 
L 106.626116 129.138391 
L 109.905455 130.792222 
L 113.184793 134.170234 
L 116.464132 123.684944 
L 119.743471 131.656318 
L 123.02281 130.331683 
L 126.302149 131.487376 
L 129.581488 131.280835 
L 132.860826 131.172718 
L 136.140165 130.532542 
L 139.419504 128.365033 
L 142.698843 129.564006 
L 145.978182 133.051639 
L 149.257521 136.409264 
L 152.53686 127.539371 
L 155.816198 132.658275 
L 159.095537 127.212348 
L 162.374876 130.70633 
L 165.654215 126.944479 
L 168.933554 132.736146 
L 172.212893 128.976133 
L 175.492231 130.286732 
L 178.77157 130.52803 
L 182.050909 129.421967 
L 185.330248 133.08389 
L 188.609587 129.6636 
L 191.888926 131.745552 
L 195.168264 128.652619 
L 198.447603 131.167204 
L 201.726942 129.566178 
L 205.006281 131.3694 
L 208.28562 129.744478 
L 211.564959 131.295206 
L 214.844298 131.288187 
L 218.123636 130.615426 
L 221.402975 123.835171 
L 224.682314 98.872803 
L 227.961653 125.085946 
L 231.240992 129.897045 
L 234.520331 131.035192 
L 237.799669 133.686635 
L 241.079008 130.899503 
L 244.358347 109.476404 
L 247.637686 131.934212 
L 250.917025 133.35627 
L 254.196364 121.937869 
L 257.475702 127.59769 
L 260.755041 129.781743 
L 264.03438 132.525929 
L 267.313719 133.480595 
L 270.593058 126.407908 
L 273.872397 131.228698 
L 277.151736 129.216763 
L 280.431074 131.422873 
L 283.710413 130.892317 
L 286.989752 131.339154 
L 290.269091 126.37198 
L 293.54843 102.815461 
L 296.827769 115.622832 
L 300.107107 124.422375 
L 303.386446 127.590672 
L 306.665785 115.367998 
L 309.945124 126.125 
L 313.224463 126.489288 
L 316.503802 53.568 
L 319.78314 119.268211 
L 323.062479 128.191579 
L 326.341818 125.611656 
L 329.621157 124.633595 
L 332.900496 125.182198 
L 336.179835 128.484011 
L 339.459174 129.122516 
L 342.738512 129.711893 
L 346.017851 130.778352 
L 349.29719 130.341375 
L 352.576529 121.84663 
L 355.855868 116.510657 
L 359.135207 121.585279 
L 362.414545 126.278068 
L 365.693884 129.232805 
L 368.973223 127.255628 
L 372.252562 133.122324 
L 375.531901 128.20478 
L 378.81124 132.926645 
L 382.090579 114.901443 
L 385.369917 111.160647 
L 388.649256 130.130322 
L 391.928595 132.434523 
L 395.207934 86.858008 
L 398.487273 120.843503 
" clip-path="url(#pfbc83014ca)" style="fill: none; stroke: #ffd700; stroke-width: 1.5; stroke-linecap: square"/>
    <defs>
     <path id="m3476fbae42" d="M 0 -3 
L -0.673542 -0.927051 
L -2.85317 -0.927051 
L -1.089814 0.354102 
L -1.763356 2.427051 
L -0 1.145898 
L 1.763356 2.427051 
L 1.089814 0.354102 
L 2.85317 -0.927051 
L 0.673542 -0.927051 
z
" style="stroke: #ffd700; stroke-linejoin: bevel"/>
    </defs>
    <g clip-path="url(#pfbc83014ca)">
     <use xlink:href="#m3476fbae42" x="73.832727" y="130.350231" style="fill: #ffd700; stroke: #ffd700; stroke-linejoin: bevel"/>
     <use xlink:href="#m3476fbae42" x="77.112066" y="120.812756" style="fill: #ffd700; stroke: #ffd700; stroke-linejoin: bevel"/>
     <use xlink:href="#m3476fbae42" x="80.391405" y="127.604708" style="fill: #ffd700; stroke: #ffd700; stroke-linejoin: bevel"/>
     <use xlink:href="#m3476fbae42" x="83.670744" y="130.206856" style="fill: #ffd700; stroke: #ffd700; stroke-linejoin: bevel"/>
     <use xlink:href="#m3476fbae42" x="86.950083" y="132.315043" style="fill: #ffd700; stroke: #ffd700; stroke-linejoin: bevel"/>
     <use xlink:href="#m3476fbae42" x="90.229421" y="130.424426" style="fill: #ffd700; stroke: #ffd700; stroke-linejoin: bevel"/>
     <use xlink:href="#m3476fbae42" x="93.50876" y="129.820678" style="fill: #ffd700; stroke: #ffd700; stroke-linejoin: bevel"/>
     <use xlink:href="#m3476fbae42" x="96.788099" y="131.323948" style="fill: #ffd700; stroke: #ffd700; stroke-linejoin: bevel"/>
     <use xlink:href="#m3476fbae42" x="100.067438" y="128.781122" style="fill: #ffd700; stroke: #ffd700; stroke-linejoin: bevel"/>
     <use xlink:href="#m3476fbae42" x="103.346777" y="130.506808" style="fill: #ffd700; stroke: #ffd700; stroke-linejoin: bevel"/>
     <use xlink:href="#m3476fbae42" x="106.626116" y="129.138391" style="fill: #ffd700; stroke: #ffd700; stroke-linejoin: bevel"/>
     <use xlink:href="#m3476fbae42" x="109.905455" y="130.792222" style="fill: #ffd700; stroke: #ffd700; stroke-linejoin: bevel"/>
     <use xlink:href="#m3476fbae42" x="113.184793" y="134.170234" style="fill: #ffd700; stroke: #ffd700; stroke-linejoin: bevel"/>
     <use xlink:href="#m3476fbae42" x="116.464132" y="123.684944" style="fill: #ffd700; stroke: #ffd700; stroke-linejoin: bevel"/>
     <use xlink:href="#m3476fbae42" x="119.743471" y="131.656318" style="fill: #ffd700; stroke: #ffd700; stroke-linejoin: bevel"/>
     <use xlink:href="#m3476fbae42" x="123.02281" y="130.331683" style="fill: #ffd700; stroke: #ffd700; stroke-linejoin: bevel"/>
     <use xlink:href="#m3476fbae42" x="126.302149" y="131.487376" style="fill: #ffd700; stroke: #ffd700; stroke-linejoin: bevel"/>
     <use xlink:href="#m3476fbae42" x="129.581488" y="131.280835" style="fill: #ffd700; stroke: #ffd700; stroke-linejoin: bevel"/>
     <use xlink:href="#m3476fbae42" x="132.860826" y="131.172718" style="fill: #ffd700; stroke: #ffd700; stroke-linejoin: bevel"/>
     <use xlink:href="#m3476fbae42" x="136.140165" y="130.532542" style="fill: #ffd700; stroke: #ffd700; stroke-linejoin: bevel"/>
     <use xlink:href="#m3476fbae42" x="139.419504" y="128.365033" style="fill: #ffd700; stroke: #ffd700; stroke-linejoin: bevel"/>
     <use xlink:href="#m3476fbae42" x="142.698843" y="129.564006" style="fill: #ffd700; stroke: #ffd700; stroke-linejoin: bevel"/>
     <use xlink:href="#m3476fbae42" x="145.978182" y="133.051639" style="fill: #ffd700; stroke: #ffd700; stroke-linejoin: bevel"/>
     <use xlink:href="#m3476fbae42" x="149.257521" y="136.409264" style="fill: #ffd700; stroke: #ffd700; stroke-linejoin: bevel"/>
     <use xlink:href="#m3476fbae42" x="152.53686" y="127.539371" style="fill: #ffd700; stroke: #ffd700; stroke-linejoin: bevel"/>
     <use xlink:href="#m3476fbae42" x="155.816198" y="132.658275" style="fill: #ffd700; stroke: #ffd700; stroke-linejoin: bevel"/>
     <use xlink:href="#m3476fbae42" x="159.095537" y="127.212348" style="fill: #ffd700; stroke: #ffd700; stroke-linejoin: bevel"/>
     <use xlink:href="#m3476fbae42" x="162.374876" y="130.70633" style="fill: #ffd700; stroke: #ffd700; stroke-linejoin: bevel"/>
     <use xlink:href="#m3476fbae42" x="165.654215" y="126.944479" style="fill: #ffd700; stroke: #ffd700; stroke-linejoin: bevel"/>
     <use xlink:href="#m3476fbae42" x="168.933554" y="132.736146" style="fill: #ffd700; stroke: #ffd700; stroke-linejoin: bevel"/>
     <use xlink:href="#m3476fbae42" x="172.212893" y="128.976133" style="fill: #ffd700; stroke: #ffd700; stroke-linejoin: bevel"/>
     <use xlink:href="#m3476fbae42" x="175.492231" y="130.286732" style="fill: #ffd700; stroke: #ffd700; stroke-linejoin: bevel"/>
     <use xlink:href="#m3476fbae42" x="178.77157" y="130.52803" style="fill: #ffd700; stroke: #ffd700; stroke-linejoin: bevel"/>
     <use xlink:href="#m3476fbae42" x="182.050909" y="129.421967" style="fill: #ffd700; stroke: #ffd700; stroke-linejoin: bevel"/>
     <use xlink:href="#m3476fbae42" x="185.330248" y="133.08389" style="fill: #ffd700; stroke: #ffd700; stroke-linejoin: bevel"/>
     <use xlink:href="#m3476fbae42" x="188.609587" y="129.6636" style="fill: #ffd700; stroke: #ffd700; stroke-linejoin: bevel"/>
     <use xlink:href="#m3476fbae42" x="191.888926" y="131.745552" style="fill: #ffd700; stroke: #ffd700; stroke-linejoin: bevel"/>
     <use xlink:href="#m3476fbae42" x="195.168264" y="128.652619" style="fill: #ffd700; stroke: #ffd700; stroke-linejoin: bevel"/>
     <use xlink:href="#m3476fbae42" x="198.447603" y="131.167204" style="fill: #ffd700; stroke: #ffd700; stroke-linejoin: bevel"/>
     <use xlink:href="#m3476fbae42" x="201.726942" y="129.566178" style="fill: #ffd700; stroke: #ffd700; stroke-linejoin: bevel"/>
     <use xlink:href="#m3476fbae42" x="205.006281" y="131.3694" style="fill: #ffd700; stroke: #ffd700; stroke-linejoin: bevel"/>
     <use xlink:href="#m3476fbae42" x="208.28562" y="129.744478" style="fill: #ffd700; stroke: #ffd700; stroke-linejoin: bevel"/>
     <use xlink:href="#m3476fbae42" x="211.564959" y="131.295206" style="fill: #ffd700; stroke: #ffd700; stroke-linejoin: bevel"/>
     <use xlink:href="#m3476fbae42" x="214.844298" y="131.288187" style="fill: #ffd700; stroke: #ffd700; stroke-linejoin: bevel"/>
     <use xlink:href="#m3476fbae42" x="218.123636" y="130.615426" style="fill: #ffd700; stroke: #ffd700; stroke-linejoin: bevel"/>
     <use xlink:href="#m3476fbae42" x="221.402975" y="123.835171" style="fill: #ffd700; stroke: #ffd700; stroke-linejoin: bevel"/>
     <use xlink:href="#m3476fbae42" x="224.682314" y="98.872803" style="fill: #ffd700; stroke: #ffd700; stroke-linejoin: bevel"/>
     <use xlink:href="#m3476fbae42" x="227.961653" y="125.085946" style="fill: #ffd700; stroke: #ffd700; stroke-linejoin: bevel"/>
     <use xlink:href="#m3476fbae42" x="231.240992" y="129.897045" style="fill: #ffd700; stroke: #ffd700; stroke-linejoin: bevel"/>
     <use xlink:href="#m3476fbae42" x="234.520331" y="131.035192" style="fill: #ffd700; stroke: #ffd700; stroke-linejoin: bevel"/>
     <use xlink:href="#m3476fbae42" x="237.799669" y="133.686635" style="fill: #ffd700; stroke: #ffd700; stroke-linejoin: bevel"/>
     <use xlink:href="#m3476fbae42" x="241.079008" y="130.899503" style="fill: #ffd700; stroke: #ffd700; stroke-linejoin: bevel"/>
     <use xlink:href="#m3476fbae42" x="244.358347" y="109.476404" style="fill: #ffd700; stroke: #ffd700; stroke-linejoin: bevel"/>
     <use xlink:href="#m3476fbae42" x="247.637686" y="131.934212" style="fill: #ffd700; stroke: #ffd700; stroke-linejoin: bevel"/>
     <use xlink:href="#m3476fbae42" x="250.917025" y="133.35627" style="fill: #ffd700; stroke: #ffd700; stroke-linejoin: bevel"/>
     <use xlink:href="#m3476fbae42" x="254.196364" y="121.937869" style="fill: #ffd700; stroke: #ffd700; stroke-linejoin: bevel"/>
     <use xlink:href="#m3476fbae42" x="257.475702" y="127.59769" style="fill: #ffd700; stroke: #ffd700; stroke-linejoin: bevel"/>
     <use xlink:href="#m3476fbae42" x="260.755041" y="129.781743" style="fill: #ffd700; stroke: #ffd700; stroke-linejoin: bevel"/>
     <use xlink:href="#m3476fbae42" x="264.03438" y="132.525929" style="fill: #ffd700; stroke: #ffd700; stroke-linejoin: bevel"/>
     <use xlink:href="#m3476fbae42" x="267.313719" y="133.480595" style="fill: #ffd700; stroke: #ffd700; stroke-linejoin: bevel"/>
     <use xlink:href="#m3476fbae42" x="270.593058" y="126.407908" style="fill: #ffd700; stroke: #ffd700; stroke-linejoin: bevel"/>
     <use xlink:href="#m3476fbae42" x="273.872397" y="131.228698" style="fill: #ffd700; stroke: #ffd700; stroke-linejoin: bevel"/>
     <use xlink:href="#m3476fbae42" x="277.151736" y="129.216763" style="fill: #ffd700; stroke: #ffd700; stroke-linejoin: bevel"/>
     <use xlink:href="#m3476fbae42" x="280.431074" y="131.422873" style="fill: #ffd700; stroke: #ffd700; stroke-linejoin: bevel"/>
     <use xlink:href="#m3476fbae42" x="283.710413" y="130.892317" style="fill: #ffd700; stroke: #ffd700; stroke-linejoin: bevel"/>
     <use xlink:href="#m3476fbae42" x="286.989752" y="131.339154" style="fill: #ffd700; stroke: #ffd700; stroke-linejoin: bevel"/>
     <use xlink:href="#m3476fbae42" x="290.269091" y="126.37198" style="fill: #ffd700; stroke: #ffd700; stroke-linejoin: bevel"/>
     <use xlink:href="#m3476fbae42" x="293.54843" y="102.815461" style="fill: #ffd700; stroke: #ffd700; stroke-linejoin: bevel"/>
     <use xlink:href="#m3476fbae42" x="296.827769" y="115.622832" style="fill: #ffd700; stroke: #ffd700; stroke-linejoin: bevel"/>
     <use xlink:href="#m3476fbae42" x="300.107107" y="124.422375" style="fill: #ffd700; stroke: #ffd700; stroke-linejoin: bevel"/>
     <use xlink:href="#m3476fbae42" x="303.386446" y="127.590672" style="fill: #ffd700; stroke: #ffd700; stroke-linejoin: bevel"/>
     <use xlink:href="#m3476fbae42" x="306.665785" y="115.367998" style="fill: #ffd700; stroke: #ffd700; stroke-linejoin: bevel"/>
     <use xlink:href="#m3476fbae42" x="309.945124" y="126.125" style="fill: #ffd700; stroke: #ffd700; stroke-linejoin: bevel"/>
     <use xlink:href="#m3476fbae42" x="313.224463" y="126.489288" style="fill: #ffd700; stroke: #ffd700; stroke-linejoin: bevel"/>
     <use xlink:href="#m3476fbae42" x="316.503802" y="53.568" style="fill: #ffd700; stroke: #ffd700; stroke-linejoin: bevel"/>
     <use xlink:href="#m3476fbae42" x="319.78314" y="119.268211" style="fill: #ffd700; stroke: #ffd700; stroke-linejoin: bevel"/>
     <use xlink:href="#m3476fbae42" x="323.062479" y="128.191579" style="fill: #ffd700; stroke: #ffd700; stroke-linejoin: bevel"/>
     <use xlink:href="#m3476fbae42" x="326.341818" y="125.611656" style="fill: #ffd700; stroke: #ffd700; stroke-linejoin: bevel"/>
     <use xlink:href="#m3476fbae42" x="329.621157" y="124.633595" style="fill: #ffd700; stroke: #ffd700; stroke-linejoin: bevel"/>
     <use xlink:href="#m3476fbae42" x="332.900496" y="125.182198" style="fill: #ffd700; stroke: #ffd700; stroke-linejoin: bevel"/>
     <use xlink:href="#m3476fbae42" x="336.179835" y="128.484011" style="fill: #ffd700; stroke: #ffd700; stroke-linejoin: bevel"/>
     <use xlink:href="#m3476fbae42" x="339.459174" y="129.122516" style="fill: #ffd700; stroke: #ffd700; stroke-linejoin: bevel"/>
     <use xlink:href="#m3476fbae42" x="342.738512" y="129.711893" style="fill: #ffd700; stroke: #ffd700; stroke-linejoin: bevel"/>
     <use xlink:href="#m3476fbae42" x="346.017851" y="130.778352" style="fill: #ffd700; stroke: #ffd700; stroke-linejoin: bevel"/>
     <use xlink:href="#m3476fbae42" x="349.29719" y="130.341375" style="fill: #ffd700; stroke: #ffd700; stroke-linejoin: bevel"/>
     <use xlink:href="#m3476fbae42" x="352.576529" y="121.84663" style="fill: #ffd700; stroke: #ffd700; stroke-linejoin: bevel"/>
     <use xlink:href="#m3476fbae42" x="355.855868" y="116.510657" style="fill: #ffd700; stroke: #ffd700; stroke-linejoin: bevel"/>
     <use xlink:href="#m3476fbae42" x="359.135207" y="121.585279" style="fill: #ffd700; stroke: #ffd700; stroke-linejoin: bevel"/>
     <use xlink:href="#m3476fbae42" x="362.414545" y="126.278068" style="fill: #ffd700; stroke: #ffd700; stroke-linejoin: bevel"/>
     <use xlink:href="#m3476fbae42" x="365.693884" y="129.232805" style="fill: #ffd700; stroke: #ffd700; stroke-linejoin: bevel"/>
     <use xlink:href="#m3476fbae42" x="368.973223" y="127.255628" style="fill: #ffd700; stroke: #ffd700; stroke-linejoin: bevel"/>
     <use xlink:href="#m3476fbae42" x="372.252562" y="133.122324" style="fill: #ffd700; stroke: #ffd700; stroke-linejoin: bevel"/>
     <use xlink:href="#m3476fbae42" x="375.531901" y="128.20478" style="fill: #ffd700; stroke: #ffd700; stroke-linejoin: bevel"/>
     <use xlink:href="#m3476fbae42" x="378.81124" y="132.926645" style="fill: #ffd700; stroke: #ffd700; stroke-linejoin: bevel"/>
     <use xlink:href="#m3476fbae42" x="382.090579" y="114.901443" style="fill: #ffd700; stroke: #ffd700; stroke-linejoin: bevel"/>
     <use xlink:href="#m3476fbae42" x="385.369917" y="111.160647" style="fill: #ffd700; stroke: #ffd700; stroke-linejoin: bevel"/>
     <use xlink:href="#m3476fbae42" x="388.649256" y="130.130322" style="fill: #ffd700; stroke: #ffd700; stroke-linejoin: bevel"/>
     <use xlink:href="#m3476fbae42" x="391.928595" y="132.434523" style="fill: #ffd700; stroke: #ffd700; stroke-linejoin: bevel"/>
     <use xlink:href="#m3476fbae42" x="395.207934" y="86.858008" style="fill: #ffd700; stroke: #ffd700; stroke-linejoin: bevel"/>
     <use xlink:href="#m3476fbae42" x="398.487273" y="120.843503" style="fill: #ffd700; stroke: #ffd700; stroke-linejoin: bevel"/>
    </g>
   </g>
   <g id="patch_3">
    <path d="M 57.6 307.584 
L 57.6 41.472 
" style="fill: none; stroke: #000000; stroke-width: 0.8; stroke-linejoin: miter; stroke-linecap: square"/>
   </g>
   <g id="patch_4">
    <path d="M 414.72 307.584 
L 414.72 41.472 
" style="fill: none; stroke: #000000; stroke-width: 0.8; stroke-linejoin: miter; stroke-linecap: square"/>
   </g>
   <g id="patch_5">
    <path d="M 57.6 307.584 
L 414.72 307.584 
" style="fill: none; stroke: #000000; stroke-width: 0.8; stroke-linejoin: miter; stroke-linecap: square"/>
   </g>
   <g id="patch_6">
    <path d="M 57.6 41.472 
L 414.72 41.472 
" style="fill: none; stroke: #000000; stroke-width: 0.8; stroke-linejoin: miter; stroke-linecap: square"/>
   </g>
   <g id="text_18">
    <!-- Get client NsPerOp -->
    <g transform="translate(179.468437 35.472) scale(0.12 -0.12)">
     <defs>
      <path id="DejaVuSans-47" d="M 3809 666 
L 3809 1919 
L 2778 1919 
L 2778 2438 
L 4434 2438 
L 4434 434 
Q 4069 175 3628 42 
Q 3188 -91 2688 -91 
Q 1594 -91 976 548 
Q 359 1188 359 2328 
Q 359 3472 976 4111 
Q 1594 4750 2688 4750 
Q 3144 4750 3555 4637 
Q 3966 4525 4313 4306 
L 4313 3634 
Q 3963 3931 3569 4081 
Q 3175 4231 2741 4231 
Q 1884 4231 1454 3753 
Q 1025 3275 1025 2328 
Q 1025 1384 1454 906 
Q 1884 428 2741 428 
Q 3075 428 3337 486 
Q 3600 544 3809 666 
z
" transform="scale(0.015625)"/>
      <path id="DejaVuSans-74" d="M 1172 4494 
L 1172 3500 
L 2356 3500 
L 2356 3053 
L 1172 3053 
L 1172 1153 
Q 1172 725 1289 603 
Q 1406 481 1766 481 
L 2356 481 
L 2356 0 
L 1766 0 
Q 1100 0 847 248 
Q 594 497 594 1153 
L 594 3053 
L 172 3053 
L 172 3500 
L 594 3500 
L 594 4494 
L 1172 4494 
z
" transform="scale(0.015625)"/>
      <path id="DejaVuSans-63" d="M 3122 3366 
L 3122 2828 
Q 2878 2963 2633 3030 
Q 2388 3097 2138 3097 
Q 1578 3097 1268 2742 
Q 959 2388 959 1747 
Q 959 1106 1268 751 
Q 1578 397 2138 397 
Q 2388 397 2633 464 
Q 2878 531 3122 666 
L 3122 134 
Q 2881 22 2623 -34 
Q 2366 -91 2075 -91 
Q 1284 -91 818 406 
Q 353 903 353 1747 
Q 353 2603 823 3093 
Q 1294 3584 2113 3584 
Q 2378 3584 2631 3529 
Q 2884 3475 3122 3366 
z
" transform="scale(0.015625)"/>
      <path id="DejaVuSans-6c" d="M 603 4863 
L 1178 4863 
L 1178 0 
L 603 0 
L 603 4863 
z
" transform="scale(0.015625)"/>
      <path id="DejaVuSans-69" d="M 603 3500 
L 1178 3500 
L 1178 0 
L 603 0 
L 603 3500 
z
M 603 4863 
L 1178 4863 
L 1178 4134 
L 603 4134 
L 603 4863 
z
" transform="scale(0.015625)"/>
      <path id="DejaVuSans-6e" d="M 3513 2113 
L 3513 0 
L 2938 0 
L 2938 2094 
Q 2938 2591 2744 2837 
Q 2550 3084 2163 3084 
Q 1697 3084 1428 2787 
Q 1159 2491 1159 1978 
L 1159 0 
L 581 0 
L 581 3500 
L 1159 3500 
L 1159 2956 
Q 1366 3272 1645 3428 
Q 1925 3584 2291 3584 
Q 2894 3584 3203 3211 
Q 3513 2838 3513 2113 
z
" transform="scale(0.015625)"/>
     </defs>
     <use xlink:href="#DejaVuSans-47"/>
     <use xlink:href="#DejaVuSans-65" x="77.490234"/>
     <use xlink:href="#DejaVuSans-74" x="139.013672"/>
     <use xlink:href="#DejaVuSans-20" x="178.222656"/>
     <use xlink:href="#DejaVuSans-63" x="210.009766"/>
     <use xlink:href="#DejaVuSans-6c" x="264.990234"/>
     <use xlink:href="#DejaVuSans-69" x="292.773438"/>
     <use xlink:href="#DejaVuSans-65" x="320.556641"/>
     <use xlink:href="#DejaVuSans-6e" x="382.080078"/>
     <use xlink:href="#DejaVuSans-74" x="445.458984"/>
     <use xlink:href="#DejaVuSans-20" x="484.667969"/>
     <use xlink:href="#DejaVuSans-4e" x="516.455078"/>
     <use xlink:href="#DejaVuSans-73" x="591.259766"/>
     <use xlink:href="#DejaVuSans-50" x="643.359375"/>
     <use xlink:href="#DejaVuSans-65" x="700.037109"/>
     <use xlink:href="#DejaVuSans-72" x="761.560547"/>
     <use xlink:href="#DejaVuSans-4f" x="802.673828"/>
     <use xlink:href="#DejaVuSans-70" x="881.384766"/>
    </g>
   </g>
   <g id="legend_1">
    <g id="patch_7">
     <path d="M 349.57625 78.82825 
L 407.72 78.82825 
Q 409.72 78.82825 409.72 76.82825 
L 409.72 48.472 
Q 409.72 46.472 407.72 46.472 
L 349.57625 46.472 
Q 347.57625 46.472 347.57625 48.472 
L 347.57625 76.82825 
Q 347.57625 78.82825 349.57625 78.82825 
z
" style="fill: #ffffff; opacity: 0.8; stroke: #cccccc; stroke-linejoin: miter"/>
    </g>
    <g id="line2d_31">
     <path d="M 351.57625 54.570437 
L 361.57625 54.570437 
L 371.57625 54.570437 
" style="fill: none; stroke: #8b008b; stroke-width: 1.5; stroke-linecap: square"/>
     <g>
      <use xlink:href="#mfb6513c9ed" x="361.57625" y="54.570437" style="fill: #8b008b; stroke: #8b008b; stroke-linejoin: miter"/>
     </g>
    </g>
    <g id="text_19">
     <!-- gorm -->
     <g transform="translate(379.57625 58.070437) scale(0.1 -0.1)">
      <defs>
       <path id="DejaVuSans-67" d="M 2906 1791 
Q 2906 2416 2648 2759 
Q 2391 3103 1925 3103 
Q 1463 3103 1205 2759 
Q 947 2416 947 1791 
Q 947 1169 1205 825 
Q 1463 481 1925 481 
Q 2391 481 2648 825 
Q 2906 1169 2906 1791 
z
M 3481 434 
Q 3481 -459 3084 -895 
Q 2688 -1331 1869 -1331 
Q 1566 -1331 1297 -1286 
Q 1028 -1241 775 -1147 
L 775 -588 
Q 1028 -725 1275 -790 
Q 1522 -856 1778 -856 
Q 2344 -856 2625 -561 
Q 2906 -266 2906 331 
L 2906 616 
Q 2728 306 2450 153 
Q 2172 0 1784 0 
Q 1141 0 747 490 
Q 353 981 353 1791 
Q 353 2603 747 3093 
Q 1141 3584 1784 3584 
Q 2172 3584 2450 3431 
Q 2728 3278 2906 2969 
L 2906 3500 
L 3481 3500 
L 3481 434 
z
" transform="scale(0.015625)"/>
       <path id="DejaVuSans-6f" d="M 1959 3097 
Q 1497 3097 1228 2736 
Q 959 2375 959 1747 
Q 959 1119 1226 758 
Q 1494 397 1959 397 
Q 2419 397 2687 759 
Q 2956 1122 2956 1747 
Q 2956 2369 2687 2733 
Q 2419 3097 1959 3097 
z
M 1959 3584 
Q 2709 3584 3137 3096 
Q 3566 2609 3566 1747 
Q 3566 888 3137 398 
Q 2709 -91 1959 -91 
Q 1206 -91 779 398 
Q 353 888 353 1747 
Q 353 2609 779 3096 
Q 1206 3584 1959 3584 
z
" transform="scale(0.015625)"/>
       <path id="DejaVuSans-6d" d="M 3328 2828 
Q 3544 3216 3844 3400 
Q 4144 3584 4550 3584 
Q 5097 3584 5394 3201 
Q 5691 2819 5691 2113 
L 5691 0 
L 5113 0 
L 5113 2094 
Q 5113 2597 4934 2840 
Q 4756 3084 4391 3084 
Q 3944 3084 3684 2787 
Q 3425 2491 3425 1978 
L 3425 0 
L 2847 0 
L 2847 2094 
Q 2847 2600 2669 2842 
Q 2491 3084 2119 3084 
Q 1678 3084 1418 2786 
Q 1159 2488 1159 1978 
L 1159 0 
L 581 0 
L 581 3500 
L 1159 3500 
L 1159 2956 
Q 1356 3278 1631 3431 
Q 1906 3584 2284 3584 
Q 2666 3584 2933 3390 
Q 3200 3197 3328 2828 
z
" transform="scale(0.015625)"/>
      </defs>
      <use xlink:href="#DejaVuSans-67"/>
      <use xlink:href="#DejaVuSans-6f" x="63.476562"/>
      <use xlink:href="#DejaVuSans-72" x="124.658203"/>
      <use xlink:href="#DejaVuSans-6d" x="164.021484"/>
     </g>
    </g>
    <g id="line2d_32">
     <path d="M 351.57625 69.248562 
L 361.57625 69.248562 
L 371.57625 69.248562 
" style="fill: none; stroke: #ffd700; stroke-width: 1.5; stroke-linecap: square"/>
     <g>
      <use xlink:href="#m3476fbae42" x="361.57625" y="69.248562" style="fill: #ffd700; stroke: #ffd700; stroke-linejoin: bevel"/>
     </g>
    </g>
    <g id="text_20">
     <!-- sqlx -->
     <g transform="translate(379.57625 72.748562) scale(0.1 -0.1)">
      <defs>
       <path id="DejaVuSans-71" d="M 947 1747 
Q 947 1113 1208 752 
Q 1469 391 1925 391 
Q 2381 391 2643 752 
Q 2906 1113 2906 1747 
Q 2906 2381 2643 2742 
Q 2381 3103 1925 3103 
Q 1469 3103 1208 2742 
Q 947 2381 947 1747 
z
M 2906 525 
Q 2725 213 2448 61 
Q 2172 -91 1784 -91 
Q 1150 -91 751 415 
Q 353 922 353 1747 
Q 353 2572 751 3078 
Q 1150 3584 1784 3584 
Q 2172 3584 2448 3432 
Q 2725 3281 2906 2969 
L 2906 3500 
L 3481 3500 
L 3481 -1331 
L 2906 -1331 
L 2906 525 
z
" transform="scale(0.015625)"/>
       <path id="DejaVuSans-78" d="M 3513 3500 
L 2247 1797 
L 3578 0 
L 2900 0 
L 1881 1375 
L 863 0 
L 184 0 
L 1544 1831 
L 300 3500 
L 978 3500 
L 1906 2253 
L 2834 3500 
L 3513 3500 
z
" transform="scale(0.015625)"/>
      </defs>
      <use xlink:href="#DejaVuSans-73"/>
      <use xlink:href="#DejaVuSans-71" x="52.099609"/>
      <use xlink:href="#DejaVuSans-6c" x="115.576172"/>
      <use xlink:href="#DejaVuSans-78" x="143.359375"/>
     </g>
    </g>
   </g>
  </g>
 </g>
 <defs>
  <clipPath id="pfbc83014ca">
   <rect x="57.6" y="41.472" width="357.12" height="266.112"/>
  </clipPath>
 </defs>
</svg>
